<svg width="75" height="75" viewBox="0 0 75 75" fill="none" xmlns="http://www.w3.org/2000/svg">
<path fill-rule="evenodd" clip-rule="evenodd" d="M37.5 75C58.2107 75 75 58.2107 75 37.5C75 16.7893 58.2107 0 37.5 0C16.7893 0 0 16.7893 0 37.5C0 58.2107 16.7893 75 37.5 75ZM37.5 13.7656C41.2714 13.7656 44.5121 19.7662 45.8861 28.3125H29.1139C30.4879 19.7662 33.7286 13.7656 37.5 13.7656ZM28.7159 43.625C28.5169 41.6631 28.4032 39.6246 28.4032 37.5C28.4032 35.3754 28.5169 33.3369 28.7159 31.375H46.2746C46.4736 33.3369 46.5873 35.3754 46.5873 37.5C46.5873 39.6246 46.4736 41.6631 46.2746 43.625H28.7159ZM44.1994 14.7609C50.9746 16.7899 56.4611 21.8143 59.1711 28.3125H48.9373C48.1035 22.867 46.5115 17.9957 44.1994 14.7609ZM15.8289 28.3125C18.5294 21.8143 24.0254 16.7899 30.7911 14.7609C28.479 17.9957 26.8871 22.867 26.0627 28.3125H15.8289ZM49.3163 31.375H60.1851C60.6968 33.3369 60.9905 35.3754 60.9905 37.5C60.9905 39.6246 60.6968 41.6631 60.1757 43.625H49.3163C49.5153 41.6152 49.629 39.5576 49.629 37.5C49.629 35.4424 49.5153 33.3848 49.3163 31.375ZM25.6837 31.375C25.4847 33.3848 25.371 35.4424 25.371 37.5C25.371 39.5576 25.4847 41.6152 25.6742 43.625H14.8149C14.3032 41.6631 14 39.6246 14 37.5C14 35.3754 14.3032 33.3369 14.8149 31.375H25.6837ZM37.5 61.2344C33.7286 61.2344 30.4879 55.2338 29.1139 46.6875H45.8861C44.5121 55.2338 41.2714 61.2344 37.5 61.2344ZM59.1807 46.6875C56.4706 53.1857 50.9746 58.2101 44.2089 60.2391C46.521 57.0043 48.1129 52.133 48.9468 46.6875H59.1807ZM30.8006 60.2391C24.0254 58.2101 18.5389 53.1857 15.8289 46.6875H26.0627C26.8965 52.133 28.4885 57.0043 30.8006 60.2391Z" fill="white"/>
</svg>
