<?xml version="1.0" encoding="utf-8"?>
<!-- Generator: Adobe Illustrator 25.4.1, SVG Export Plug-In . SVG Version: 6.00 Build 0)  -->
<svg version="1.1" id="logo" xmlns="http://www.w3.org/2000/svg" xmlns:xlink="http://www.w3.org/1999/xlink" x="0px" y="0px"
	 viewBox="0 0 200 48.6" style="enable-background:new 0 0 200 48.6;" xml:space="preserve">
<style type="text/css">
	.st0{fill:#293275;}
	.st1{fill:#05B050;}
	.st2{fill:#263473;}
</style>
<g id="logo_00000035516555905375113810000017016709149167280289_">
	<g id="Name">
		<path class="st0" d="M90.8,18.4c-1-0.7-2.3-1.1-4.1-1.1c-1.1,0-2.1,0.2-3.1,0.7c-1,0.4-1.9,1-2.6,1.7c-0.7,0.6-1.2,1.3-1.5,2
			c-0.4-1.2-1.1-2.3-2-3c-1.1-0.9-2.5-1.3-4.3-1.3c-0.9,0-1.8,0.2-2.7,0.5c-0.8,0.3-1.6,0.8-2.3,1.4c-0.7,0.6-1.2,1.2-1.6,1.8v-1.8
			c0-0.4-0.1-0.8-0.4-1.1c-0.3-0.3-0.7-0.4-1.1-0.4c-0.4,0-0.8,0.1-1.1,0.4s-0.4,0.7-0.4,1.1v17.1c0,0.4,0.2,0.8,0.4,1.1
			c0.3,0.3,0.7,0.5,1.1,0.5s0.8-0.2,1.1-0.5c0.3-0.3,0.5-0.7,0.5-1.1V25.4c0-1,0.3-1.9,0.8-2.7c0.5-0.8,1.2-1.4,2.1-1.9
			c0.9-0.5,1.8-0.7,2.9-0.7c1.1,0,2,0.2,2.7,0.7c0.7,0.5,1.1,1.1,1.4,1.9c0.3,0.8,0.4,1.7,0.4,2.7v10.7c0,0.4,0.2,0.8,0.4,1.1
			c0.3,0.3,0.7,0.5,1.1,0.5c0.5,0,0.8-0.2,1.1-0.5c0.3-0.3,0.4-0.7,0.4-1.1V25.6c0-1,0.3-1.9,0.8-2.8c0.5-0.8,1.2-1.5,2.1-2
			c0.9-0.5,1.9-0.7,2.9-0.7c1.1,0,2.1,0.2,2.7,0.7c0.7,0.5,1.1,1.1,1.4,2c0.3,0.8,0.4,1.7,0.4,2.8v10.6c0,0.4,0.1,0.8,0.4,1.1
			c0.3,0.3,0.7,0.5,1.1,0.5c0.4,0,0.8-0.2,1.1-0.5c0.3-0.3,0.4-0.7,0.4-1.1V25.5c0-1.5-0.2-2.9-0.6-4.2
			C92.5,20.1,91.8,19.1,90.8,18.4z"/>
		<path class="st0" d="M113.6,18.4c-1.5-0.9-3.2-1.4-5.1-1.4c-1.9,0-3.6,0.5-5.2,1.4c-1.5,0.9-2.8,2.2-3.7,3.8s-1.3,3.4-1.3,5.4
			c0,2,0.4,3.8,1.3,5.4c0.9,1.6,2.1,2.8,3.7,3.8c1.5,0.9,3.3,1.4,5.2,1.4c1.9,0,3.6-0.5,5.1-1.4c1.5-0.9,2.7-2.2,3.6-3.8
			c0.9-1.6,1.4-3.4,1.4-5.4c0-2-0.5-3.8-1.4-5.4C116.3,20.6,115.1,19.3,113.6,18.4z M114.5,31.6c-0.6,1.1-1.4,2.1-2.5,2.7
			c-1.1,0.7-2.2,1-3.6,1c-1.3,0-2.5-0.3-3.6-1c-1.1-0.7-1.9-1.6-2.5-2.7c-0.6-1.1-0.9-2.5-0.9-4c0-1.5,0.3-2.8,0.9-4
			c0.6-1.1,1.5-2,2.5-2.7c1.1-0.7,2.2-1,3.6-1c1.3,0,2.5,0.3,3.6,1c1.1,0.7,1.9,1.6,2.5,2.7c0.6,1.1,0.9,2.5,0.9,4
			C115.5,29.1,115.2,30.4,114.5,31.6z"/>
		<path class="st0" d="M138.5,17.2c-0.7,0-1.2,0.3-1.4,1l-6.2,14.6l-6.2-14.7c-0.1-0.3-0.3-0.6-0.6-0.7c-0.3-0.2-0.6-0.3-0.9-0.3
			c-0.5,0-0.9,0.2-1.2,0.4c-0.3,0.3-0.4,0.6-0.4,1c0,0.2,0,0.3,0.1,0.5c0,0.1,0.1,0.2,0.1,0.4l7.6,17.3c0.1,0.4,0.3,0.6,0.6,0.8
			c0.3,0.2,0.6,0.2,1,0.2c0.6,0,1.1-0.4,1.4-1l7.6-17.4c0.1-0.1,0.1-0.2,0.1-0.4c0-0.1,0.1-0.3,0.1-0.4c0-0.4-0.1-0.7-0.4-1
			C139.3,17.3,138.9,17.2,138.5,17.2z"/>
		<path class="st0" d="M158.8,19.6c-0.9-0.8-1.9-1.5-3-1.9c-1.1-0.4-2.3-0.7-3.5-0.7c-1.6,0-3.1,0.4-4.6,1.3
			c-1.4,0.8-2.6,2.1-3.5,3.7c-0.9,1.6-1.3,3.5-1.3,5.8c0,2,0.4,3.8,1.3,5.4c0.9,1.6,2.1,2.8,3.7,3.7c1.6,0.9,3.4,1.3,5.5,1.3
			c1.4,0,2.7-0.3,4-0.9c1.3-0.6,2.2-1.3,3-2.1c0.4-0.3,0.6-0.7,0.6-1.2c0-0.4-0.1-0.7-0.4-0.9c-0.2-0.3-0.6-0.4-1-0.4
			c-0.3,0-0.6,0.1-1,0.4c-0.3,0.4-0.8,0.7-1.3,1.1c-0.5,0.4-1.1,0.6-1.8,0.9c-0.7,0.2-1.5,0.4-2.4,0.4c-1.5,0-2.7-0.3-3.8-1
			c-1.1-0.7-2-1.6-2.6-2.7c-0.5-1-0.8-2.1-0.9-3.4h14.2c0.4,0,0.8-0.1,1.1-0.4c0.3-0.3,0.5-0.6,0.5-1.1c0-1.5-0.3-2.8-0.8-4
			C160.4,21.5,159.7,20.5,158.8,19.6z M148,21.7c0.6-0.6,1.3-1.1,2.1-1.3s1.5-0.4,2.3-0.4c1,0,1.9,0.2,2.8,0.6
			c0.9,0.4,1.6,1,2.2,1.8c0.6,0.8,1,1.7,1.1,2.8v0.3h-12.3c0.1-0.5,0.2-1,0.4-1.4C146.9,23.1,147.4,22.3,148,21.7z"/>
		<path class="st1" d="M168.6,10.4c-0.5,0-0.9,0.2-1.2,0.4c-0.3,0.3-0.5,0.7-0.5,1.2v24.2c0,0.4,0.1,0.8,0.4,1.1
			c0.3,0.3,0.7,0.5,1.2,0.5c0.4,0,0.8-0.2,1.2-0.5c0.3-0.3,0.5-0.7,0.5-1.1V12c0-0.5-0.2-0.9-0.5-1.2
			C169.4,10.5,169.1,10.4,168.6,10.4z"/>
		<path class="st1" d="M199.3,18.9c-0.5-1.7-1.2-3.1-2.2-4.4c-1-1.3-2.2-2.3-3.6-3c-1.4-0.7-3.1-1.1-5-1.1h-9.8
			c-0.4,0-0.8,0.2-1.1,0.4c-0.3,0.3-0.4,0.7-0.4,1.1v24.2c0,0.4,0.1,0.8,0.4,1.1c0.3,0.3,0.7,0.5,1.1,0.5h9.8c2.6,0,4.7-0.6,6.4-1.9
			c1.7-1.2,3-2.9,3.8-5s1.3-4.4,1.3-6.9C200,22.3,199.8,20.5,199.3,18.9z M195.8,29.4c-0.6,1.6-1.5,2.9-2.8,3.9
			c-1.3,1-2.9,1.4-4.9,1.4h-7.7V13.4h7.7c1.5,0,2.8,0.3,3.9,0.9c1.1,0.6,2,1.4,2.7,2.3c0.7,1,1.2,2.1,1.5,3.4c0.3,1.3,0.5,2.6,0.5,4
			C196.6,26,196.3,27.8,195.8,29.4z"/>
	</g>
	<g id="Symbol">
		<path class="st0" d="M8,43.8v3.4c0,0.8-0.6,1.4-1.4,1.4H2.7c-0.8,0-1.4-0.6-1.4-1.4v-4.4c0.7,0.7,1.6,1,2.7,1H8z"/>
		<path class="st0" d="M48.9,42.7v4.4c0,0.8-0.6,1.4-1.4,1.4h-3.8c-0.8,0-1.4-0.6-1.4-1.4v-3.4h3.9C47.3,43.8,48.2,43.4,48.9,42.7z"
			/>
		<g>
			<path class="st2" d="M47.4,26c-0.4-0.6-2.4-3.8-3-4.9C43,21.7,41.5,22,39.9,22c-1.9,0-3.6-0.5-5.2-1.3h0l-28.6,0
				c0,0.1-2.8,4.5-3.3,5.2c-0.9,1.4-1.4,2.8-1.5,4.4v9.5c0.1,1.4,1.2,2.5,2.7,2.5h42.3c1.4,0,2.6-1.1,2.6-2.5v-9.5
				C48.8,28.8,48.3,27.3,47.4,26z M18.4,35.3H9.8c-2,0-3.6-1.6-3.6-3.6v-1c0-2,1.6-3.6,3.6-3.6h8.6c1.2,0,2.3,0.6,3,1.6H9.8
				c-1.1,0-2,0.9-2,2v1c0,1.1,0.9,2,2,2h11.6C20.7,34.6,19.7,35.3,18.4,35.3z M31.8,30.1v2.2H18.5v-2.2H31.8z M44,31.6
				c0,2-1.6,3.7-3.7,3.7h-9c-1.2,0-2.4-0.6-3-1.6h12c1.1,0,2.1-0.9,2.1-2.1v-0.9c0-1.1-0.9-2-2.1-2h-12c0.6-1,1.8-1.6,3-1.6h9
				c2,0,3.7,1.6,3.7,3.6V31.6z"/>
		</g>
		<g>
			<g>
				<path class="st2" d="M2.7,19.3H0C0,8.7,8.7,0,19.3,0v2.7C10.1,2.7,2.7,10.1,2.7,19.3z"/>
			</g>
			<g>
				<path class="st2" d="M8.7,19.3H6C6,12,12,6,19.3,6v2.7C13.5,8.7,8.7,13.5,8.7,19.3z"/>
			</g>
			<g>
				<path class="st2" d="M14.7,19.3H12c0-4,3.3-7.3,7.3-7.3v2.7C16.8,14.7,14.7,16.8,14.7,19.3z"/>
			</g>
		</g>
		<g>
			<path class="st2" d="M28.2,10.3c0,0.5,0,0.9,0.1,1.3h-7.6V9h7.6C28.3,9.4,28.2,9.9,28.2,10.3z"/>
		</g>
		<g>
			<path class="st1" d="M39.9,0c-5.7,0-10.4,4.6-10.4,10.3c0,5.7,4.6,10.4,10.4,10.4c5.7,0,10.3-4.6,10.3-10.4
				C50.3,4.6,45.6,0,39.9,0z M40.4,16.1c-2.5,0-4.6-1.6-5.4-3.8h-1.8v-1.8h1.4c0-0.1,0-0.2,0-0.3c0-0.3,0-0.5,0.1-0.8h-1.5V7.8h2
				c0.9-1.9,2.9-3.3,5.2-3.3c2,0,4,1.1,5,2.9l-1.5,0.9c-0.7-1.2-2.1-2-3.5-2c-1.3,0-2.4,0.6-3.1,1.5h4.6v1.8h-5.5
				c0,0.2-0.1,0.5-0.1,0.8c0,0.1,0,0.2,0,0.3h4v1.8h-3.5c0.7,1.2,2,2,3.5,2c1.4,0,2.8-0.8,3.5-2l1.5,0.9
				C44.4,15,42.4,16.1,40.4,16.1z"/>
		</g>
	</g>
</g>
</svg>
