<svg width="20" height="20" viewBox="0 0 20 20" fill="white" xmlns="http://www.w3.org/2000/svg">
<path d="M10 0.400024C4.698 0.400024 0.400002 4.69802 0.400002 10C0.400002 15.302 4.698 19.6 10 19.6C15.302 19.6 19.6 15.302 19.6 10C19.6 4.69802 15.302 0.400024 10 0.400024ZM7.65 13.979H5.706V7.72302H7.65V13.979ZM6.666 6.95502C6.052 6.95502 5.655 6.52002 5.655 5.98202C5.655 5.43302 6.064 5.01102 6.691 5.01102C7.318 5.01102 7.702 5.43302 7.714 5.98202C7.714 6.52002 7.318 6.95502 6.666 6.95502ZM14.75 13.979H12.806V10.512C12.806 9.70502 12.524 9.15702 11.821 9.15702C11.284 9.15702 10.965 9.52803 10.824 9.88503C10.772 10.012 10.759 10.192 10.759 10.371V13.978H8.814V9.71803C8.814 8.93703 8.789 8.28402 8.763 7.72202H10.452L10.541 8.59102H10.58C10.836 8.18302 11.463 7.58102 12.512 7.58102C13.791 7.58102 14.75 8.43802 14.75 10.28V13.979V13.979Z" />
</svg>
