<svg width="76" height="76" viewBox="0 0 76 76" fill="none" xmlns="http://www.w3.org/2000/svg">
<path d="M37.8125 0.3125C17.1038 0.3125 0.3125 17.1038 0.3125 37.8125C0.3125 58.5212 17.1038 75.3125 37.8125 75.3125C58.5212 75.3125 75.3125 58.5212 75.3125 37.8125C75.3125 17.1038 58.5212 0.3125 37.8125 0.3125ZM55.8343 28.5798C55.8594 28.9732 55.8594 29.3834 55.8594 29.7852C55.8594 42.0731 46.5011 56.2277 29.4001 56.2277C24.1267 56.2277 19.2383 54.6959 15.12 52.0592C15.8733 52.1429 16.5932 52.1763 17.3633 52.1763C21.716 52.1763 25.7171 50.7031 28.9063 48.2087C24.8214 48.125 21.3895 45.4464 20.2176 41.7634C21.649 41.9727 22.9381 41.9727 24.4113 41.596C22.308 41.1687 20.4175 40.0264 19.061 38.3631C17.7044 36.6999 16.9656 34.6184 16.9699 32.4721V32.3549C18.2003 33.0497 19.6484 33.4766 21.1635 33.5352C19.8899 32.6863 18.8454 31.5364 18.1226 30.1872C17.3998 28.838 17.0211 27.3314 17.0201 25.8008C17.0201 24.0681 17.4721 22.486 18.284 21.1133C20.6186 23.9872 23.5318 26.3377 26.8342 28.012C30.1367 29.6863 33.7545 30.6469 37.4526 30.8315C36.1384 24.5117 40.8594 19.3973 46.5346 19.3973C49.2132 19.3973 51.6239 20.519 53.3231 22.327C55.4241 21.9336 57.433 21.1468 59.2243 20.0921C58.5296 22.2433 57.0731 24.0597 55.1395 25.2065C57.0145 25.0056 58.8225 24.4866 60.4967 23.7584C59.2327 25.6166 57.6507 27.2656 55.8343 28.5798V28.5798Z" fill="white"/>
</svg>
